<svg xmlns="http://www.w3.org/2000/svg" xmlns:xlink="http://www.w3.org/1999/xlink" width="512" height="512" viewBox="0 0 512 512">
  <defs>
    <clipPath id="clip-Taille_personnalisée_1">
      <rect width="512" height="512"/>
    </clipPath>
  </defs>
  <g id="Taille_personnalisée_1" data-name="Taille personnalisée – 1" clip-path="url(#clip-Taille_personnalisée_1)">
    <path id="heart-circle-bolt-regular" d="M198.607,427.009l-2.2-2.077L42.307,277.987A137.729,137.729,0,0,1,0,178.277V175.3C0,111.714,43.979,57.162,104.845,45.241a125.931,125.931,0,0,1,98.336,21.766A133.3,133.3,0,0,1,225.17,87.148a116.154,116.154,0,0,1,11.874-12.012,125.68,125.68,0,0,1,10.115-8.129h0A126.341,126.341,0,0,1,345.5,45.15C406.362,57.072,450.34,111.714,450.34,175.3v2.98a141.138,141.138,0,0,1-.968,16.167,154.037,154.037,0,0,0-41.34-14.27V175.3c0-42.72-29.554-79.479-70.454-87.517a85.4,85.4,0,0,0-80.921,28.179l-.088.09-.088.09L240.827,134.2c-.264.361-.616.632-.88.993a20.636,20.636,0,0,1-29.729,0,4.692,4.692,0,0,1-.88-.993l-15.656-18.063-.088-.09h0A85.263,85.263,0,0,0,112.673,87.87c-40.9,7.948-70.454,44.616-70.454,87.427v2.98A93.927,93.927,0,0,0,71.069,246.2L225.17,393.14l7.652-7.225a161.951,161.951,0,0,0,19.526,40.552l-.528.542a38.6,38.6,0,0,1-26.563,10.748A38.2,38.2,0,0,1,198.7,427.009ZM379.975,206.456c69.951,0,126.658,58.228,126.658,130.056S449.926,466.568,379.975,466.568,253.316,408.34,253.316,336.512,310.023,206.456,379.975,206.456Zm42.131,56.9a10.385,10.385,0,0,0-13.282-.542l-84.439,65.028a11.116,11.116,0,0,0-3.694,12.1,10.54,10.54,0,0,0,10.027,7.406h31.313L335.556,396.3a10.987,10.987,0,0,0,2.287,13.457,10.274,10.274,0,0,0,13.282.542l84.439-65.028a11.116,11.116,0,0,0,3.694-12.1,10.54,10.54,0,0,0-10.027-7.406H397.918l26.475-48.952A10.987,10.987,0,0,0,422.106,263.355Z" transform="translate(2.684 1.305)" fill="#ec5390"/>
  </g>
</svg>
